<svg width="19" height="19" viewBox="0 0 19 19" fill="none" xmlns="http://www.w3.org/2000/svg">
<path d="M13.3666 0H5.72408C4.23054 0.00159921 2.79862 0.595615 1.74253 1.65171C0.686435 2.7078 0.0924195 4.13972 0.0908203 5.63326L0.0908203 13.2757C0.0924195 14.7693 0.686435 16.2012 1.74253 17.2573C2.79862 18.3134 4.23054 18.9074 5.72408 18.909H13.3666C14.8601 18.9074 16.292 18.3134 17.3481 17.2573C18.4042 16.2012 18.9982 14.7693 18.9998 13.2757V5.63326C18.9982 4.13972 18.4042 2.7078 17.3481 1.65171C16.292 0.595615 14.8601 0.00159921 13.3666 0ZM17.0933 13.2757C17.0922 14.2638 16.6992 15.211 16.0005 15.9097C15.3019 16.6083 14.3546 17.0013 13.3666 17.0025H5.72408C4.73469 17.0034 3.78545 16.6113 3.08512 15.9124C2.38479 15.2136 1.99072 14.2651 1.98957 13.2757V5.63326C1.98912 5.14271 2.08541 4.65688 2.27292 4.20359C2.46044 3.75029 2.7355 3.33842 3.08237 2.99155C3.42924 2.64468 3.84111 2.36962 4.29441 2.1821C4.7477 1.99459 5.23353 1.8983 5.72408 1.89875H13.3666C14.3559 1.8999 15.3044 2.29397 16.0032 2.9943C16.7021 3.69463 17.0942 4.64387 17.0933 5.63326V13.2757Z" fill="white"/>
<path d="M9.54494 4.56396C8.57776 4.56396 7.6323 4.85077 6.82812 5.38811C6.02394 5.92544 5.39716 6.68918 5.02703 7.58273C4.65691 8.47629 4.56006 9.45954 4.74875 10.4081C4.93744 11.3567 5.40318 12.2281 6.08708 12.912C6.77098 13.5959 7.64233 14.0616 8.59092 14.2503C9.53952 14.439 10.5228 14.3422 11.4163 13.972C12.3099 13.6019 13.0736 12.9751 13.611 12.1709C14.1483 11.3668 14.4351 10.4213 14.4351 9.45412C14.4335 8.15766 13.9178 6.91476 13.001 5.99802C12.0843 5.08129 10.8414 4.56556 9.54494 4.56396ZM9.54494 12.4429C8.95398 12.4429 8.37629 12.2677 7.88492 11.9394C7.39356 11.6111 7.01059 11.1444 6.78444 10.5984C6.55829 10.0524 6.49912 9.45166 6.61441 8.87206C6.7297 8.29245 7.01427 7.76005 7.43215 7.34218C7.85002 6.92431 8.38242 6.63973 8.96202 6.52444C9.54163 6.40915 10.1424 6.46833 10.6884 6.69448C11.2344 6.92064 11.701 7.30361 12.0293 7.79497C12.3576 8.28634 12.5329 8.86403 12.5329 9.45499C12.5329 10.2474 12.2181 11.0074 11.6577 11.5678C11.0974 12.1281 10.3374 12.4429 9.54494 12.4429Z" fill="white"/>
<path d="M14.4455 5.77311C15.0928 5.77311 15.6175 5.24837 15.6175 4.60107C15.6175 3.95376 15.0928 3.42902 14.4455 3.42902C13.7982 3.42902 13.2734 3.95376 13.2734 4.60107C13.2734 5.24837 13.7982 5.77311 14.4455 5.77311Z" fill="white"/>
</svg>
